<?xml version="1.0"?>
<svg xmlns="http://www.w3.org/2000/svg" height="512px" viewBox="0 0 512 512.00527" width="512px"><g><path d="m448.347656 512.003906-42.425781-42.425781 63.640625-63.636719 42.425781 42.425782zm0 0" data-original="#000000" class="active-path" data-old_color="#000000" fill="#FFFFFF"/><path d="m257.441406 321.082031 63.636719-63.640625 127.28125 127.277344-63.640625 63.640625zm0 0" data-original="#000000" class="active-path" data-old_color="#000000" fill="#FFFFFF"/><path d="m236.230469 299.867188 63.640625-63.636719-95.460938-31.824219zm0 0" data-original="#000000" class="active-path" data-old_color="#000000" fill="#FFFFFF"/><path d="m79.226562 320.765625-36.023437 60.058594 58.976563 58.976562 60.042968-36.023437c6.285156 3.0625 13.804688 5.773437 20.542969 8.101562l17.53125 70.121094h83.410156l17.535157-70.121094c1.113281-.386718 2.128906-.933594 3.230468-1.339844l-49.8125-49.8125c-4.21875.449219-8.320312 1.273438-12.65625 1.273438-66.277344 0-121-53.726562-121-120 0-66.066406 54.535156-120 121-120 66.273438 0 120 53.726562 120 120 0 4.335938-.828125 8.4375-1.273437 12.65625l49.808593 49.8125c.40625-1.101562.953126-2.117188 1.339844-3.230469l70.125-17.535156v-83.40625l-70.125-17.535156c-2.34375-6.738281-5.039062-13.257813-8.097656-19.539063l36.019531-60.046875-58.976562-58.972656-60.058594 36.019531c-6.269531-3.0625-12.785156-5.757812-19.523437-8.101562l-17.535157-72.121094h-83.410156l-17.53125 72.121094c-6.738281 2.34375-14.257813 5.039062-20.527344 8.101562l-60.058593-36.019531-58.976563 58.972656 36.023437 60.046875c-3.0625 6.28125-5.757812 12.800782-8.101562 19.539063l-71.12109375 17.535156v83.40625l71.12109375 17.535156c2.34375 6.738281 5.039062 13.257813 8.101562 19.527344zm0 0" data-original="#000000" class="active-path" data-old_color="#000000" fill="#FFFFFF"/></g> </svg>
