<?xml version="1.0"?>
<svg xmlns="http://www.w3.org/2000/svg" xmlns:xlink="http://www.w3.org/1999/xlink" version="1.1" id="Layer_1" x="0px" y="0px" viewBox="0 0 297 297" style="enable-background:new 0 0 297 297;" xml:space="preserve" width="512px" height="512px"><g transform="matrix(0.913517 0 0 0.913517 12.8427 12.8427)"><g>
	<g>
		<g>
			<path d="M256.879,0H40.121C17.998,0,0,17.998,0,40.121V256.88C0,279.002,17.998,297,40.121,297H256.88     c22.122,0,40.12-17.998,40.12-40.121V40.121C297,17.998,279.002,0,256.879,0z M276.447,256.879L276.447,256.879     c-0.001,10.79-8.778,19.567-19.568,19.567H40.121c-10.79,0-19.567-8.777-19.567-19.567V40.121     c0-10.79,8.777-19.567,19.567-19.567H256.88c10.79,0,19.567,8.777,19.567,19.567V256.879z" data-original="#000000" class="active-path" data-old_color="#ffffff" fill="#ffffff"/>
			<path d="M206.959,100.069V49.283c0-3.215-1.504-6.244-4.066-8.187c-2.558-1.943-5.88-2.578-8.979-1.71l-61.781,17.278     c-4.439,1.241-7.509,5.288-7.509,9.897v109.025c-11.745-4.627-26.857-3.619-40.464,3.895     c-10.015,5.529-17.872,13.78-22.127,23.234c-4.639,10.311-4.503,21.288,0.372,30.119c4.875,8.832,14.093,14.795,25.291,16.363     c2.021,0.283,4.078,0.423,6.153,0.423c8.467,0,17.256-2.327,25.298-6.767c14.239-7.861,24.222-20.911,26.031-33.895v-82.025     l54.569-17.052C204.038,108.538,206.959,104.565,206.959,100.069z M109.213,224.857c-6.058,3.344-12.866,4.793-18.668,3.984     c-2.779-0.389-7.792-1.678-10.146-5.942c-2.353-4.262-0.773-9.191,0.378-11.75c2.406-5.346,7.26-10.331,13.317-13.675     c5.064-2.796,10.555-4.158,15.439-4.158c6.039,0,11.149,2.082,13.375,6.114C126.936,206.724,120.536,218.606,109.213,224.857z      M186.406,92.514l-41.228,12.883v-31.04l41.228-11.529V92.514z" data-original="#000000" class="active-path" data-old_color="#ffffff" fill="#ffffff"/>
			<path d="M44.833,55.109h51.834c5.675,0,10.277-4.601,10.277-10.277c0-5.676-4.601-10.277-10.277-10.277H44.833     c-5.675,0-10.277,4.601-10.277,10.277C34.556,50.508,39.157,55.109,44.833,55.109z" data-original="#000000" class="active-path" data-old_color="#ffffff" fill="#ffffff"/>
			<path d="M106.943,79.388c0-5.675-4.601-10.277-10.277-10.277H44.833c-5.675,0-10.277,4.601-10.277,10.277     c0,5.675,4.601,10.277,10.277,10.277h51.834C102.342,89.665,106.943,85.064,106.943,79.388z" data-original="#000000" class="active-path" data-old_color="#ffffff" fill="#ffffff"/>
			<path d="M252.167,207.335h-51.834c-5.675,0-10.277,4.601-10.277,10.277c0,5.675,4.601,10.277,10.277,10.277h51.834     c5.675,0,10.277-4.601,10.277-10.277S257.843,207.335,252.167,207.335z" data-original="#000000" class="active-path" data-old_color="#ffffff" fill="#ffffff"/>
			<path d="M252.167,241.891h-51.834c-5.675,0-10.277,4.601-10.277,10.277c0,5.675,4.601,10.277,10.277,10.277h51.834     c5.675,0,10.277-4.602,10.277-10.277C262.444,246.492,257.843,241.891,252.167,241.891z" data-original="#000000" class="active-path" data-old_color="#ffffff" fill="#ffffff"/>
		</g>
	</g>
</g></g> </svg>
