<?xml version="1.0"?>
<svg xmlns="http://www.w3.org/2000/svg" height="512px" viewBox="0 0 512 512.00336" width="512px"><g><path d="m510.390625 227.574219c-1.738281-15.5625-17.140625-25.199219-30.398437-25.199219-15.980469 0-30.121094-9.3125-36.011719-23.691406-6.039063-14.769532-2.121094-32 9.710937-42.851563 10.917969-9.988281 12.289063-26.910156 3.128906-38.527343-12-15.242188-25.660156-29.03125-40.578124-40.980469-11.710938-9.390625-28.761719-8.019531-38.832032 3.128906-10.199218 11.300781-29.179687 15.558594-43.160156 9.730469-14.917969-6.28125-24.320312-21.410156-23.398438-37.609375.898438-15.011719-10.109374-28.128907-25.082031-29.871094-19.136719-2.21875-38.519531-2.269531-57.589843-.148437-14.660157 1.617187-25.757813 14.449218-25.269532 29.230468.5625 16.097656-8.960937 30.96875-23.6875 37-13.890625 5.679688-32.730468 1.378906-42.902344-9.8125-9.949218-10.898437-26.847656-12.320312-38.53125-3.210937-15.378906 12.070312-29.316406 25.851562-41.417968 40.953125-9.378906 11.667968-8.050782 28.71875 3.058594 38.820312 12.0625 10.929688 15.972656 28.296875 9.710937 43.207032-5.941406 14.160156-21.007813 23.320312-38.417969 23.390624-15-.347656-27.191406 10.140626-29.011718 25.089844-2.238282 19.191406-2.28125 38.769532-.109376 58.210938 1.738282 15.558594 17.300782 25.191406 30.710938 25.191406h.378906c15.121094-.390625 29.347656 9.148438 35.339844 23.707031 6.039062 14.75 2.128906 31.972657-9.761719 42.871094-10.878906 10.011719-12.230469 26.921875-3.109375 38.449219 11.839844 15.089844 25.472656 28.882812 40.511719 41 11.699219 9.421875 28.769531 8.082031 38.878906-3.070313 10.238281-11.320312 29.199219-15.597656 43.171875-9.738281 14.929688 6.25 24.339844 21.371094 23.429688 37.578125-.890625 15.042969 10.128906 28.160156 25.046875 29.871094 9.722656 1.128906 19.652343 1.710937 29.511719 1.710937 9.378906 0 18.839843-.519531 28.101562-1.550781 14.667969-1.621094 25.769531-14.460937 25.269531-29.257813-.582031-16.082031 8.929688-30.933593 23.660157-36.960937 13.898437-5.679687 32.757812-1.382813 42.96875 9.839844 10.089843 10.96875 26.601562 12.371093 38.488281 3.167969 15.300781-11.988282 29.242187-25.769532 41.410156-40.9375 9.429687-11.691407 8.089844-28.761719-3.046875-38.851563-12.070312-10.929687-15.992188-28.289063-9.730469-43.199219 5.859375-13.980468 20.019531-23.390625 35.277344-23.460937l2.441406.058593c14.699219.933594 27.96875-10.207031 29.730469-25.058593 2.25-19.191407 2.289062-38.78125.109375-58.21875zm-254.390625 170.808593c-78.511719 0-142.382812-63.871093-142.382812-142.378906 0-78.507812 63.871093-142.390625 142.382812-142.390625s142.378906 63.882813 142.378906 142.390625c0 78.507813-63.867187 142.378906-142.378906 142.378906zm0 0" data-original="#000000" class="active-path" data-old_color="#000000" fill="#FFFFFF"/><path d="m256 143.613281c-61.972656 0-112.382812 50.421875-112.382812 112.390625s50.410156 112.378906 112.382812 112.378906c61.96875 0 112.378906-50.410156 112.378906-112.378906s-50.410156-112.390625-112.378906-112.390625zm15 184.570313c0 8.277344-6.722656 15-15 15-8.28125 0-15-6.722656-15-15v-9.351563c0-8.28125 6.71875-15 15-15 8.277344 0 15 6.71875 15 15zm6.730469-61.640625c-4.089844 1.960937-6.730469 6.359375-6.730469 11.21875 0 8.292969-6.722656 15-15 15-8.28125 0-15-6.707031-15-15 0-16.339844 9.328125-31.359375 23.769531-38.277344 7.589844-3.632813 12.121094-11.421875 11.539063-19.851563-.699219-10.039062-8.789063-18.140624-18.828125-18.828124-5.730469-.390626-11.203125 1.527343-15.363281 5.417968-4.179688 3.890625-6.476563 9.179688-6.476563 14.878906 0 8.292969-6.710937 15-15 15-8.28125 0-15-6.707031-15-15 0-13.898437 5.839844-27.316406 16.007813-36.808593 10.308593-9.628907 23.761718-14.398438 37.890624-13.417969 24.898438 1.71875 44.980469 21.789062 46.691407 46.6875 1.4375 20.78125-9.75 40-28.5 48.980469zm0 0" data-original="#000000" class="active-path" data-old_color="#000000" fill="#FFFFFF"/></g> </svg>
